HIERARCHY
ROOT Hips
{
	OFFSET	0.00	0.00	0.00
	CHANNELS 6 Xposition Yposition Zposition Zrotation Xrotation Yrotation
	JOINT LeftUpLeg
	{
		OFFSET	 0.126116	-0.014019	-0.065224
		CHANNELS 3 Zrotation Xrotation Yrotation
		JOINT LeftLeg
		{
			OFFSET	 0.000000	 0.000000	 0.569914
			CHANNELS 3 Zrotation Xrotation Yrotation
			JOINT LeftFoot
			{
				OFFSET	 0.000000	 0.000000	 0.544423
				CHANNELS 3 Zrotation Xrotation Yrotation
				JOINT LeftToeBase
				{
					OFFSET	 0.000000	 0.000000	 0.207117
					CHANNELS 3 Zrotation Xrotation Yrotation
					End Site
					{
						OFFSET	 0.000000	 0.000000	 0.207117
					}
				}
			}
		}
	}
	JOINT RightUpLeg
	{
		OFFSET	-0.124023	-0.008373	-0.065224
		CHANNELS 3 Zrotation Xrotation Yrotation
		JOINT RightLeg
		{
			OFFSET	 0.000000	 0.000000	 0.570047
			CHANNELS 3 Zrotation Xrotation Yrotation
			JOINT RightFoot
			{
				OFFSET	 0.000000	 0.000000	 0.544354
				CHANNELS 3 Zrotation Xrotation Yrotation
				JOINT RightToeBase
				{
					OFFSET	 0.000000	 0.000000	 0.207540
					CHANNELS 3 Zrotation Xrotation Yrotation
					End Site
					{
						OFFSET	 0.000000	 0.000000	 0.207540
					}
				}
			}
		}
	}
	JOINT Spine
	{
		OFFSET	 0.000184	-0.007763	 0.117403
		CHANNELS 3 Zrotation Xrotation Yrotation
		JOINT Spine1
		{
			OFFSET	 0.000000	 0.000000	 0.137269
			CHANNELS 3 Zrotation Xrotation Yrotation
			JOINT Spine2
			{
				OFFSET	 0.000000	 0.000000	 0.156879
				CHANNELS 3 Zrotation Xrotation Yrotation
				JOINT LeftShoulder
				{
					OFFSET	 0.080501	-0.002496	 0.160144
					CHANNELS 3 Zrotation Xrotation Yrotation
					JOINT LeftArm
					{
						OFFSET	 0.000000	 0.000000	 0.164363
						CHANNELS 3 Zrotation Xrotation Yrotation
						JOINT LeftForeArm
						{
							OFFSET	 0.000000	 0.000000	 0.364576
							CHANNELS 3 Zrotation Xrotation Yrotation
							JOINT LeftHand
							{
								OFFSET	 0.000000	 0.000000	 0.360812
								CHANNELS 3 Zrotation Xrotation Yrotation
								JOINT LeftHandIndex1
								{
									OFFSET	 0.000000	 0.000000	 0.086006
									CHANNELS 3 Zrotation Xrotation Yrotation
									JOINT LeftHandIndex2
									{
										OFFSET	 0.000000	 0.000000	 0.047236
										CHANNELS 3 Zrotation Xrotation Yrotation
										JOINT LeftHandIndex3
										{
											OFFSET	-0.004284	-0.000551	 0.038166
											CHANNELS 3 Zrotation Xrotation Yrotation
											End Site
											{
												OFFSET	-0.004284	-0.000551	 0.038166
											}
										}
									}
								}
							}
						}
					}
				}
				JOINT Neck
				{
					OFFSET	 0.000000	 0.000000	 0.176489
					CHANNELS 3 Zrotation Xrotation Yrotation
					JOINT Head
					{
						OFFSET	 0.000000	-0.001747	 0.077940
						CHANNELS 3 Zrotation Xrotation Yrotation
						End Site
						{
							OFFSET	 0.000000	-0.001747	 0.077940
						}
					}
				}
				JOINT RightShoulder
				{
					OFFSET	-0.080363	 0.000306	 0.159706
					CHANNELS 3 Zrotation Xrotation Yrotation
					JOINT RightArm
					{
						OFFSET	 0.000000	 0.000000	 0.164196
						CHANNELS 3 Zrotation Xrotation Yrotation
						JOINT RightForeArm
						{
							OFFSET	 0.000000	 0.000000	 0.365611
							CHANNELS 3 Zrotation Xrotation Yrotation
							JOINT RightHand
							{
								OFFSET	 0.000000	 0.000000	 0.360648
								CHANNELS 3 Zrotation Xrotation Yrotation
								JOINT RightHandIndex1
								{
									OFFSET	 0.000000	 0.000000	 0.069977
									CHANNELS 3 Zrotation Xrotation Yrotation
									JOINT RightHandIndex2
									{
										OFFSET	 0.000000	 0.000000	 0.052305
										CHANNELS 3 Zrotation Xrotation Yrotation
										JOINT RightHandIndex3
										{
											OFFSET	 0.009002	-0.000782	 0.042196
											CHANNELS 3 Zrotation Xrotation Yrotation
											End Site
											{
												OFFSET	 0.009002	-0.000782	 0.042196
											}
										}
									}
								}
							}
						}
					}
				}
			}
		}
	}
}
MOTION
Frames:    6
Frame Time: 0.03333334
 0.012771	 0.039928	 1.202364	 5.371951	-0.759026	-2.745774	-3.254427	-12.294050	-171.602300	 1.136546	-38.462650	 0.487562	 49.353470	 80.723410	-53.612100	-2.368977	 31.686030	-0.071531	-3.629205	-31.619930	-175.658200	 11.278540	-50.204060	 9.303807	 29.150920	 78.850900	-26.599490	 2.358958	 33.001630	 0.103260	-7.713873	 8.233571	 1.930077	-2.039905	 2.084696	-1.319341	 3.099958	-2.570523	 1.550513	-94.044050	 58.970290	 175.162400	 19.945900	 37.849900	-38.648430	-1.892086	-0.045138	-0.920275	-2.802397	-27.124280	-9.237860	-4.867209	 19.318510	-2.795902	-3.873671	 21.573160	 2.194775	-4.805140	 5.582284	 0.144818	-0.052687	-5.094954	 0.211646	 1.030045	 1.626338	 2.642220	 89.740820	 61.713500	 179.901300	-20.524510	 54.790680	 10.511180	-1.498401	-2.269232	 12.103100	-3.963553	-12.218620	 0.632654	 6.283548	 24.066430	-0.544397	 1.982193	 43.906880	-7.079111	 0.688455	 23.560180	 3.486899
 0.012105	 0.027139	 1.202071	 5.756852	-0.396924	-2.770516	-3.631124	-11.921160	-171.671100	 1.290180	-38.200220	 0.579768	 50.056240	 80.887990	-54.434520	-2.368306	 31.794520	-0.074005	-4.676340	-32.828870	-175.646100	 11.517530	-48.484870	 9.253590	 38.094530	 80.320620	-36.220020	 2.359032	 32.991480	 0.103026	-8.269094	 7.948502	 1.812135	-2.044800	 2.150631	-1.188179	 2.963768	-2.850908	 1.487908	-94.139390	 58.985800	 174.957000	 19.804290	 37.018620	-39.238040	-2.174416	-0.039986	-1.062999	-3.188610	-28.360350	-9.907708	-4.863855	 19.404310	-2.801540	-3.868273	 21.641950	 2.189289	-4.803926	 5.596593	 0.143977	-0.033072	-5.109253	 0.239720	 0.948842	 1.496378	 2.580115	 89.703840	 61.780530	 179.812400	-20.232640	 55.210540	 9.434286	-1.658634	-2.344427	 12.459950	-3.782419	-13.097260	 0.579806	 6.274122	 23.396850	-0.553808	 2.059792	 43.251850	-7.147840	 0.832324	 22.917450	 3.416117
 0.009802	-0.034318	 1.199680	 6.456149	 0.745043	-3.327005	-4.368436	-8.948428	-171.500200	 1.598555	-36.080200	 0.733768	 54.463670	 81.617280	-59.127030	-2.363120	 32.615580	-0.092787	-5.916288	-36.121990	-174.979100	 11.091840	-38.148040	 7.402066	 55.547040	 79.410560	-55.903110	 2.358689	 33.040650	 0.104177	-9.921082	 6.752818	 1.855943	-2.014760	 3.231904	-0.617558	 2.378967	-4.083624	 1.125877	-94.414560	 58.976800	 174.371800	 18.162220	 33.537080	-41.881740	-3.959202	-0.006060	-1.641344	-5.338856	-33.538040	-10.725620	-4.838235	 19.971640	-2.821347	-3.839477	 22.007000	 2.160029	-4.785448	 5.813982	 0.131213	 0.005523	-5.219949	 0.328223	 0.444892	 1.044491	 2.473559	 89.510930	 61.999550	 179.345200	-18.756460	 56.613240	 5.522408	-2.997692	-2.509207	 12.550920	-3.845947	-16.622260	-0.551201	 6.222328	 20.403470	-0.654542	 2.363868	 40.519800	-7.414433	 1.493816	 19.871540	 3.108347
 0.006666	-0.094970	 1.194588	 6.733900	 1.041646	-3.776707	-4.897804	-4.907112	-171.417700	 1.803104	-33.600450	 0.802755	 52.747600	 81.778470	-57.533630	-2.346018	 34.986660	-0.148556	-4.994436	-36.581040	-174.077200	 10.360300	-27.306130	 5.151491	 67.981260	 77.444790	-69.261340	 2.341344	 35.359050	 0.159201	-11.455180	 6.242733	 2.003973	-1.904111	 4.457946	-0.145510	 1.775806	-5.288152	 0.741965	-94.522640	 58.921650	 174.150600	 15.948470	 31.430450	-43.654900	-5.042947	 0.032555	-2.190027	-8.177748	-37.969460	-12.239840	-4.835756	 20.411680	-2.937683	-3.803061	 22.463760	 2.123045	-4.743110	 6.309662	 0.101818	 0.074241	-5.354065	 0.351802	-0.079410	 0.690218	 2.203601	 89.386350	 62.006440	 179.044200	-16.705340	 57.313980	 1.984137	-4.358937	-2.401598	 11.645580	-3.889161	-20.550990	-2.032792	 6.173365	 17.307170	-0.706881	 2.750706	 36.622220	-7.746352	 2.131749	 16.797480	 2.840667
-0.000157	-0.161111	 1.183270	 7.120480	 0.930626	-3.563950	-5.730117	-0.254360	-172.140500	 2.321766	-31.740220	 1.036148	 36.962140	 80.123810	-41.849210	-2.274218	 41.963410	-0.329575	-4.219418	-39.668730	-173.949200	 9.618625	-22.775980	 4.054783	 38.605620	 72.513470	-39.739720	 2.338947	 35.649080	 0.166264	-13.511310	 6.117004	 1.679412	-1.582876	 5.744896	 0.288096	 0.867766	-6.537796	 0.193050	-94.512540	 59.221050	 174.122600	 13.784620	 30.663690	-45.275620	-5.845373	 0.089514	-2.857373	-12.938400	-43.284010	-16.094530	-4.879010	 20.613620	-3.249652	-3.763684	 22.951340	 2.083063	-4.671842	 7.136137	 0.051918	 0.188915	-5.480909	 0.274803	-0.708823	 0.494506	 1.849044	 89.355720	 61.636200	 178.984000	-14.451520	 57.461330	-3.099968	-5.285778	-2.850205	 13.517160	-3.665674	-25.642040	-3.058720	 6.196178	 13.843460	-0.383221	 3.030633	 33.467130	-7.980451	 2.807754	 13.403360	 2.590647
-0.009128	-0.227754	 1.171347	 7.854427	 0.192025	-2.449957	-5.727630	 5.344654	-174.211900	 0.778358	-29.397640	 0.208933	 17.441430	 72.917250	-19.935990	-2.058800	 53.197950	-0.709241	-1.066092	-42.055250	-173.405000	 6.296815	-22.829600	 2.748992	 11.034920	 62.382090	-7.248804	 2.337527	 35.818140	 0.170398	-15.681320	 6.336804	 0.470707	-1.313928	 7.258981	 0.835087	-0.226363	-7.350487	-0.597556	-94.421300	 59.224610	 174.317700	 12.288620	 30.129130	-46.647820	-6.967655	 0.162505	-3.491966	-16.422900	-45.921340	-18.406170	-4.895503	 20.820880	-3.413869	-3.743683	 23.196600	 2.062761	-4.595472	 8.010853	-0.002135	 0.316775	-5.444884	 0.262644	-1.389584	 0.627927	 2.042797	 89.286000	 61.408230	 178.827400	-12.889730	 57.221690	-6.473279	-5.447040	-3.106180	 15.191110	-3.151861	-29.877090	-2.378895	 6.308489	 10.873200	 0.221956	 3.223863	 31.106560	-8.138506	 3.290495	 10.901590	 2.434612
